<svg width="19" height="16" viewBox="0 0 19 16" fill="none" xmlns="http://www.w3.org/2000/svg">
<path d="M18.7314 1.85183C18.0233 2.17673 17.315 2.37963 16.6072 2.46112C17.4066 1.94946 17.9474 1.22661 18.2292 0.292637C17.4978 0.755487 16.7175 1.07215 15.8877 1.24278C15.1566 0.414376 14.2583 0 13.1921 0C12.1719 0 11.3021 0.383696 10.5822 1.15125C9.8628 1.91877 9.50304 2.84661 9.50304 3.93489C9.50304 4.22722 9.53345 4.52784 9.59441 4.83644C8.08675 4.75523 6.67245 4.35119 5.35129 3.62429C4.0302 2.8973 2.90901 1.92877 1.98773 0.718662C1.65269 1.32766 1.48512 1.9897 1.48512 2.70439C1.48512 3.37851 1.63357 4.00397 1.93068 4.58063C2.22759 5.15719 2.62743 5.62414 3.12999 5.98155C2.53598 5.95714 1.98016 5.7906 1.46248 5.48196V5.53069C1.46248 6.48101 1.7423 7.31536 2.30188 8.03436C2.86153 8.75328 3.5678 9.2058 4.42052 9.39269C4.10069 9.48192 3.77702 9.5266 3.44966 9.5266C3.23644 9.5266 3.00418 9.50632 2.75296 9.46601C2.98898 10.2537 3.42302 10.9011 4.05492 11.4091C4.68694 11.9166 5.40269 12.1782 6.20221 12.1949C4.86216 13.3155 3.33553 13.8758 1.62233 13.8758C1.29486 13.8758 0.997991 13.8599 0.731445 13.8273C2.44469 15.0048 4.33299 15.5936 6.39647 15.5936C7.70611 15.5936 8.93583 15.3725 10.0852 14.9297C11.2352 14.4873 12.2173 13.8943 13.0321 13.1509C13.8467 12.4079 14.5492 11.5531 15.1393 10.5866C15.7293 9.62005 16.1689 8.61101 16.4585 7.55926C16.7477 6.5073 16.8924 5.45372 16.8924 4.3977C16.8924 4.17026 16.8886 3.99979 16.8809 3.88603C17.6045 3.32589 18.2212 2.64759 18.7314 1.85183Z" fill="white"/>
</svg>
